{
  "accessors": [
    {
      "bufferView": 1,
      "componentType": 5126,
      "count": 350,
      "max": [
        0.50142198801040649,
        0.10704910010099411,
        0.39674627780914307
      ],
      "min": [
        -0.48434114456176758,
        -0.339652419090271,
        0.12874457240104675
      ],
      "type": "VEC3"
    },
    {
      "bufferView": 1,
      "byteOffset": 4200,
      "componentType": 5126,
      "count": 350,
      "max": [
        0.99106729030609131,
        0.99986529350280762,
        0.99991834163665771
      ],
      "min": [
        -0.99534505605697632,
        -0.99994140863418579,
        -1
      ],
      "type": "VEC3"
    },
    {
      "bufferView": 0,
      "componentType": 5125,
      "count": 390,
      "max": [
        349
      ],
      "min": [
        0
      ],
      "type": "SCALAR"
    },
    {
      "bufferView": 1,
      "byteOffset": 8400,
      "componentType": 5126,
      "count": 108,
      "max": [
        -0.420509934425354,
        0.14953623712062836,
        0.44300219416618347
      ],
      "min": [
        -0.51713675260543823,
        -0.36577633023262024,
        -0.012165345251560211
      ],
      "type": "VEC3"
    },
    {
      "bufferView": 1,
      "byteOffset": 9696,
      "componentType": 5126,
      "count": 108,
      "max": [
        0.99984002113342285,
        0.98854422569274902,
        0.99988329410552979
      ],
      "min": [
        -0.99804657697677612,
        -0.99812525510787964,
        -0.97234421968460083
      ],
      "type": "VEC3"
    },
    {
      "bufferView": 0,
      "byteOffset": 1560,
      "componentType": 5125,
      "count": 108,
      "max": [
        107
      ],
      "min": [
        0
      ],
      "type": "SCALAR"
    },
    {
      "bufferView": 1,
      "byteOffset": 10992,
      "componentType": 5126,
      "count": 108,
      "max": [
        0.52795040607452393,
        0.16789327561855316,
        0.47304150462150574
      ],
      "min": [
        0.41983932256698608,
        -0.3779241144657135,
        -0.01299694087356329
      ],
      "type": "VEC3"
    },
    {
      "bufferView": 1,
      "byteOffset": 12288,
      "componentType": 5126,
      "count": 108,
      "max": [
        0.99961215257644653,
        0.97458344697952271,
        0.99995827674865723
      ],
      "min": [
        -0.99865633249282837,
        -0.99601566791534424,
        -0.997444748878479
      ],
      "type": "VEC3"
    },
    {
      "bufferView": 2,
      "componentType": 5126,
      "count": 108,
      "max": [
        1,
        1,
        1,
        1
      ],
      "min": [
        0.60000002384185791,
        0.54117649793624878,
        0.45098039507865906,
        1
      ],
      "type": "VEC4"
    },
    {
      "bufferView": 0,
      "byteOffset": 1992,
      "componentType": 5125,
      "count": 108,
      "max": [
        107
      ],
      "min": [
        0
      ],
      "type": "SCALAR"
    }
  ],
  "asset": {
    "extras": {
      "author": "dvnc.tech (https://sketchfab.com/dvnc.tech)",
      "license": "CC-BY-4.0 (http://creativecommons.org/licenses/by/4.0/)",
      "source": "https://sketchfab.com/3d-models/low-poly-bench-4d41e9adc6b444a383b7990b9ed6c708",
      "title": "Low-Poly Bench"
    },
    "generator": "Sketchfab-6.33.0",
    "version": "2.0"
  },
  "bufferViews": [
    {
      "buffer": 0,
      "byteLength": 2424,
      "byteOffset": 0,
      "name": "floatBufferViews",
      "target": 34963
    },
    {
      "buffer": 0,
      "byteLength": 13584,
      "byteOffset": 2424,
      "byteStride": 12,
      "name": "floatBufferViews",
      "target": 34962
    },
    {
      "buffer": 0,
      "byteLength": 1728,
      "byteOffset": 16008,
      "byteStride": 16,
      "name": "floatBufferViews",
      "target": 34962
    }
  ],
  "buffers": [
    {
      "byteLength": 17736,
      "uri": "scene.bin"
    }
  ],
  "materials": [
    {
      "doubleSided": true,
      "emissiveFactor": [
        0,
        0,
        0
      ],
      "name": "Material.004",
      "pbrMetallicRoughness": {
        "baseColorFactor": [
          0.36477700000000002,
          0.111833,
          0.0162267,
          1
        ],
        "metallicFactor": 0,
        "roughnessFactor": 0.82394172570000002
      }
    },
    {
      "doubleSided": true,
      "emissiveFactor": [
        0,
        0,
        0
      ],
      "name": "bench_arm_l",
      "pbrMetallicRoughness": {
        "baseColorFactor": [
          1,
          0.85711599999999999,
          0.59580599999999995,
          1
        ],
        "metallicFactor": 0,
        "roughnessFactor": 1
      }
    },
    {
      "doubleSided": true,
      "emissiveFactor": [
        0,
        0,
        0
      ],
      "name": "bench_arm_r",
      "pbrMetallicRoughness": {
        "baseColorFactor": [
          0.79910300000000001,
          0.72530899999999998,
          0.488346,
          1
        ],
        "metallicFactor": 0,
        "roughnessFactor": 1
      }
    }
  ],
  "meshes": [
    {
      "name": "Cube.004_Material.004_0",
      "primitives": [
        {
          "attributes": {
            "NORMAL": 1,
            "POSITION": 0
          },
          "indices": 2,
          "material": 0,
          "mode": 4
        }
      ]
    },
    {
      "name": "Plane.002_bench_arm_l_0",
      "primitives": [
        {
          "attributes": {
            "NORMAL": 4,
            "POSITION": 3
          },
          "indices": 5,
          "material": 1,
          "mode": 4
        }
      ]
    },
    {
      "name": "Plane.001_bench_arm_r_0",
      "primitives": [
        {
          "attributes": {
            "COLOR_0": 8,
            "NORMAL": 7,
            "POSITION": 6
          },
          "indices": 9,
          "material": 2,
          "mode": 4
        }
      ]
    }
  ],
  "nodes": [
    {
      "children": [
        1
      ],
      "name": "RootNode (gltf orientation matrix)",
      "rotation": [
        -0.70710678118654746,
        -0,
        -0,
        0.70710678118654757
      ]
    },
    {
      "children": [
        2
      ],
      "name": "RootNode (model correction matrix)"
    },
    {
      "children": [
        3
      ],
      "matrix": [
        1,
        0,
        0,
        0,
        0,
        0,
        1,
        0,
        0,
        -1,
        0,
        0,
        0,
        0,
        0,
        1
      ],
      "name": "7e6159e7e6fa464792dadc9d225bce6b.fbx"
    },
    {
      "children": [
        4,
        6,
        8
      ],
      "name": "RootNode"
    },
    {
      "children": [
        5
      ],
      "matrix": [
        100,
        0,
        0,
        0,
        0,
        -1.6292067939183141e-05,
        -99.999999999998678,
        0,
        0,
        99.999999999998678,
        -1.6292067939183141e-05,
        0,
        0,
        0,
        0,
        1
      ],
      "name": "Cube.004"
    },
    {
      "mesh": 0,
      "name": "Cube.004_Material.004_0"
    },
    {
      "children": [
        7
      ],
      "matrix": [
        100,
        0,
        0,
        0,
        0,
        -1.6292067939183141e-05,
        -99.999999999998678,
        0,
        0,
        99.999999999998678,
        -1.6292067939183141e-05,
        0,
        0,
        0,
        0,
        1
      ],
      "name": "Plane.002"
    },
    {
      "mesh": 1,
      "name": "Plane.002_bench_arm_l_0"
    },
    {
      "children": [
        9
      ],
      "matrix": [
        100,
        0,
        0,
        0,
        0,
        -1.6292067939183141e-05,
        -99.999999999998678,
        0,
        0,
        99.999999999998678,
        -1.6292067939183141e-05,
        0,
        0,
        0,
        0,
        1
      ],
      "name": "Plane.001"
    },
    {
      "mesh": 2,
      "name": "Plane.001_bench_arm_r_0"
    }
  ],
  "scene": 0,
  "scenes": [
    {
      "name": "OSG_Scene",
      "nodes": [
        0
      ]
    }
  ]
}

