{
  "accessors": [
    {
      "bufferView": 2,
      "componentType": 5126,
      "count": 24,
      "max": [
        12.623944282531738,
        9.942535400390625,
        3.0
      ],
      "min": [
        -12.434110641479492,
        -9.8001708984375,
        -1.4618894202816923e-14
      ],
      "type": "VEC3"
    },
    {
      "bufferView": 2,
      "byteOffset": 288,
      "componentType": 5126,
      "count": 24,
      "max": [
        0.8769270181655884,
        0.896963357925415,
        1.0
      ],
      "min": [
        -0.8960957527160645,
        -0.8987266421318054,
        -1.0
      ],
      "type": "VEC3"
    },
    {
      "bufferView": 0,
      "componentType": 5125,
      "count": 36,
      "type": "SCALAR"
    },
    {
      "bufferView": 2,
      "byteOffset": 576,
      "componentType": 5126,
      "count": 347,
      "max": [
        18.191158294677734,
        32.35498809814453,
        86.69076538085938
      ],
      "min": [
        -18.02910041809082,
        -26.294281005859375,
        6.963414192199707
      ],
      "type": "VEC3"
    },
    {
      "bufferView": 2,
      "byteOffset": 4740,
      "componentType": 5126,
      "count": 347,
      "max": [
        0.9945734739303589,
        0.996748149394989,
        0.9963840246200562
      ],
      "min": [
        -0.9946280717849731,
        -0.9994874000549316,
        -0.998807430267334
      ],
      "type": "VEC3"
    },
    {
      "bufferView": 0,
      "byteOffset": 144,
      "componentType": 5125,
      "count": 1170,
      "type": "SCALAR"
    },
    {
      "bufferView": 2,
      "byteOffset": 8904,
      "componentType": 5126,
      "count": 38,
      "max": [
        20.289012908935547,
        204.0157012939453,
        37.834815979003906
      ],
      "min": [
        1.7236428260803223,
        183.84857177734375,
        13.45180892944336
      ],
      "type": "VEC3"
    },
    {
      "bufferView": 2,
      "byteOffset": 9360,
      "componentType": 5126,
      "count": 38,
      "max": [
        0.9835985898971558,
        0.9953281879425049,
        0.8480433821678162
      ],
      "min": [
        -0.988028347492218,
        -0.3870786428451538,
        -0.9984794855117798
      ],
      "type": "VEC3"
    },
    {
      "bufferView": 1,
      "componentType": 5126,
      "count": 38,
      "max": [
        0.275299996137619,
        0.11100000143051147
      ],
      "min": [
        0.17219999432563782,
        0.004600000102072954
      ],
      "type": "VEC2"
    },
    {
      "bufferView": 0,
      "byteOffset": 4824,
      "componentType": 5125,
      "count": 171,
      "type": "SCALAR"
    },
    {
      "bufferView": 2,
      "byteOffset": 9816,
      "componentType": 5126,
      "count": 294,
      "max": [
        36.53895568847656,
        194.84461975097656,
        42.58039855957031
      ],
      "min": [
        -17.157779693603516,
        7.363367080688477,
        -3.7205381393432617
      ],
      "type": "VEC3"
    },
    {
      "bufferView": 2,
      "byteOffset": 13344,
      "componentType": 5126,
      "count": 294,
      "max": [
        0.9974121451377869,
        0.9694100618362427,
        0.9983890056610107
      ],
      "min": [
        -0.9992830753326416,
        -0.9889535307884216,
        -0.9849308133125305
      ],
      "type": "VEC3"
    },
    {
      "bufferView": 1,
      "byteOffset": 304,
      "componentType": 5126,
      "count": 294,
      "max": [
        0.5722000002861023,
        0.7746000289916992
      ],
      "min": [
        0.02448118105530739,
        0.02070000022649765
      ],
      "type": "VEC2"
    },
    {
      "bufferView": 0,
      "byteOffset": 5508,
      "componentType": 5125,
      "count": 939,
      "type": "SCALAR"
    },
    {
      "bufferView": 2,
      "byteOffset": 16872,
      "componentType": 5126,
      "count": 103,
      "max": [
        16.513498306274414,
        15.288623809814453,
        34.369293212890625
      ],
      "min": [
        -21.518510818481445,
        -0.5167882442474365,
        -5.876523494720459
      ],
      "type": "VEC3"
    },
    {
      "bufferView": 2,
      "byteOffset": 18108,
      "componentType": 5126,
      "count": 103,
      "max": [
        0.991797149181366,
        0.9179731011390686,
        0.9704508185386658
      ],
      "min": [
        -0.992412805557251,
        -0.995855987071991,
        -0.957771897315979
      ],
      "type": "VEC3"
    },
    {
      "bufferView": 1,
      "byteOffset": 2656,
      "componentType": 5126,
      "count": 103,
      "max": [
        0.4388948082923889,
        0.7379999756813049
      ],
      "min": [
        0.0038999998942017555,
        0.0038999998942017555
      ],
      "type": "VEC2"
    },
    {
      "bufferView": 0,
      "byteOffset": 9264,
      "componentType": 5125,
      "count": 300,
      "type": "SCALAR"
    },
    {
      "bufferView": 2,
      "byteOffset": 19344,
      "componentType": 5126,
      "count": 174,
      "max": [
        25.205602645874023,
        104.15779876708984,
        33.84373474121094
      ],
      "min": [
        -25.26681900024414,
        13.454137802124023,
        -1.2826099395751953
      ],
      "type": "VEC3"
    },
    {
      "bufferView": 2,
      "byteOffset": 21432,
      "componentType": 5126,
      "count": 174,
      "max": [
        0.9999168515205383,
        0.9385362267494202,
        0.995053768157959
      ],
      "min": [
        -0.9993866682052612,
        -0.9789138436317444,
        -0.9958178997039795
      ],
      "type": "VEC3"
    },
    {
      "bufferView": 1,
      "byteOffset": 3480,
      "componentType": 5126,
      "count": 174,
      "max": [
        0.6995999813079834,
        0.657800018787384
      ],
      "min": [
        0.033900000154972076,
        0.15029999613761902
      ],
      "type": "VEC2"
    },
    {
      "bufferView": 0,
      "byteOffset": 10464,
      "componentType": 5125,
      "count": 678,
      "type": "SCALAR"
    },
    {
      "bufferView": 2,
      "byteOffset": 23520,
      "componentType": 5126,
      "count": 57,
      "max": [
        20.144908905029297,
        178.7393341064453,
        29.212966918945313
      ],
      "min": [
        -13.684276580810547,
        103.01232147216797,
        9.607770919799805
      ],
      "type": "VEC3"
    },
    {
      "bufferView": 2,
      "byteOffset": 24204,
      "componentType": 5126,
      "count": 57,
      "max": [
        0.8619462847709656,
        0.5514528751373291,
        0.9997897148132324
      ],
      "min": [
        -0.8696022033691406,
        -0.15597030520439148,
        -0.8389847874641418
      ],
      "type": "VEC3"
    },
    {
      "bufferView": 1,
      "byteOffset": 4872,
      "componentType": 5126,
      "count": 57,
      "max": [
        0.7775999903678894,
        0.3831000030040741
      ],
      "min": [
        0.12540000677108765,
        0.02290000021457672
      ],
      "type": "VEC2"
    },
    {
      "bufferView": 0,
      "byteOffset": 13176,
      "componentType": 5125,
      "count": 141,
      "type": "SCALAR"
    },
    {
      "bufferView": 2,
      "byteOffset": 24888,
      "componentType": 5126,
      "count": 272,
      "max": [
        38.233436584472656,
        176.21470642089844,
        49.57463073730469
      ],
      "min": [
        -25.780288696289063,
        100.33928680419922,
        -0.14200769364833832
      ],
      "type": "VEC3"
    },
    {
      "bufferView": 2,
      "byteOffset": 28152,
      "componentType": 5126,
      "count": 272,
      "max": [
        0.9991249442100525,
        0.968541145324707,
        0.998227059841156
      ],
      "min": [
        -0.9982252717018127,
        -0.9930117726325989,
        -0.99959397315979
      ],
      "type": "VEC3"
    },
    {
      "bufferView": 1,
      "byteOffset": 5328,
      "componentType": 5126,
      "count": 272,
      "max": [
        0.743399977684021,
        0.9961000084877014
      ],
      "min": [
        0.0038999998942017555,
        0.06930000334978104
      ],
      "type": "VEC2"
    },
    {
      "bufferView": 0,
      "byteOffset": 13740,
      "componentType": 5125,
      "count": 1002,
      "type": "SCALAR"
    }
  ],
  "asset": {
    "extras": {
      "author": "tedpermana (https://sketchfab.com/tedpermana)",
      "license": "CC-BY-4.0 (http://creativecommons.org/licenses/by/4.0/)",
      "source": "https://sketchfab.com/3d-models/low-poly-man-taking-phone-while-walking-16522107ad84410dad419e2e3977e721",
      "title": "Low Poly Man Taking Phone While Walking"
    },
    "generator": "Sketchfab-11.31.0",
    "version": "2.0"
  },
  "bufferViews": [
    {
      "buffer": 0,
      "byteLength": 17748,
      "name": "floatBufferViews",
      "target": 34963
    },
    {
      "buffer": 0,
      "byteLength": 7504,
      "byteOffset": 17748,
      "byteStride": 8,
      "name": "floatBufferViews",
      "target": 34962
    },
    {
      "buffer": 0,
      "byteLength": 31416,
      "byteOffset": 25252,
      "byteStride": 12,
      "name": "floatBufferViews",
      "target": 34962
    }
  ],
  "buffers": [
    {
      "byteLength": 56668,
      "uri": "scene.bin"
    }
  ],
  "materials": [
    {
      "doubleSided": true,
      "name": "06_-_Default",
      "pbrMetallicRoughness": {
        "baseColorFactor": [
          0.0352941,
          0.0352941,
          0.0352941,
          1.0
        ],
        "metallicFactor": 0.0,
        "roughnessFactor": 0.8433008851
      }
    },
    {
      "doubleSided": true,
      "name": "07_-_Default",
      "pbrMetallicRoughness": {
        "baseColorFactor": [
          0.521569,
          0.184314,
          0.00784314,
          1.0
        ],
        "metallicFactor": 0.0,
        "roughnessFactor": 0.8433008851
      }
    },
    {
      "doubleSided": true,
      "name": "02_-_Default",
      "pbrMetallicRoughness": {
        "baseColorFactor": [
          0.0,
          0.0,
          0.0,
          1.0
        ],
        "metallicFactor": 0.0,
        "roughnessFactor": 0.8433008851
      }
    },
    {
      "doubleSided": true,
      "name": "03_-_Default",
      "pbrMetallicRoughness": {
        "baseColorFactor": [
          0.760784,
          0.67451,
          0.462745,
          1.0
        ],
        "metallicFactor": 0.0,
        "roughnessFactor": 0.8433008851
      }
    },
    {
      "doubleSided": true,
      "name": "05_-_Default",
      "pbrMetallicRoughness": {
        "baseColorFactor": [
          0.0,
          0.180392,
          0.47451,
          1.0
        ],
        "metallicFactor": 0.0,
        "roughnessFactor": 0.8433008851
      }
    },
    {
      "doubleSided": true,
      "name": "04_-_Default",
      "pbrMetallicRoughness": {
        "baseColorFactor": [
          0.545098,
          0.0627451,
          0.0117647,
          1.0
        ],
        "metallicFactor": 0.0,
        "roughnessFactor": 0.8433008851
      }
    }
  ],
  "meshes": [
    {
      "name": "Line008_06 - Default_0",
      "primitives": [
        {
          "attributes": {
            "NORMAL": 1,
            "POSITION": 0
          },
          "indices": 2,
          "material": 0,
          "mode": 4
        }
      ]
    },
    {
      "name": "Line005_07 - Default_0",
      "primitives": [
        {
          "attributes": {
            "NORMAL": 4,
            "POSITION": 3
          },
          "indices": 5,
          "material": 1,
          "mode": 4
        }
      ]
    },
    {
      "name": "Object008_02 - Default_0",
      "primitives": [
        {
          "attributes": {
            "NORMAL": 7,
            "POSITION": 6,
            "TEXCOORD_0": 8
          },
          "indices": 9,
          "material": 2,
          "mode": 4
        }
      ]
    },
    {
      "name": "Object007_03 - Default_0",
      "primitives": [
        {
          "attributes": {
            "NORMAL": 11,
            "POSITION": 10,
            "TEXCOORD_0": 12
          },
          "indices": 13,
          "material": 3,
          "mode": 4
        }
      ]
    },
    {
      "name": "Object006_02 - Default_0",
      "primitives": [
        {
          "attributes": {
            "NORMAL": 15,
            "POSITION": 14,
            "TEXCOORD_0": 16
          },
          "indices": 17,
          "material": 2,
          "mode": 4
        }
      ]
    },
    {
      "name": "Object005_06 - Default_0",
      "primitives": [
        {
          "attributes": {
            "NORMAL": 19,
            "POSITION": 18,
            "TEXCOORD_0": 20
          },
          "indices": 21,
          "material": 0,
          "mode": 4
        }
      ]
    },
    {
      "name": "Object002_05 - Default_0",
      "primitives": [
        {
          "attributes": {
            "NORMAL": 23,
            "POSITION": 22,
            "TEXCOORD_0": 24
          },
          "indices": 25,
          "material": 4,
          "mode": 4
        }
      ]
    },
    {
      "name": "Object001_04 - Default_0",
      "primitives": [
        {
          "attributes": {
            "NORMAL": 27,
            "POSITION": 26,
            "TEXCOORD_0": 28
          },
          "indices": 29,
          "material": 5,
          "mode": 4
        }
      ]
    }
  ],
  "nodes": [
    {
      "children": [
        1
      ],
      "matrix": [
        1.0,
        0.0,
        0.0,
        0.0,
        0.0,
        2.220446049250313e-16,
        -1.0,
        0.0,
        0.0,
        1.0,
        2.220446049250313e-16,
        0.0,
        0.0,
        0.0,
        0.0,
        1.0
      ],
      "name": "Sketchfab_model"
    },
    {
      "children": [
        2
      ],
      "matrix": [
        1.0,
        0.0,
        0.0,
        0.0,
        0.0,
        0.0,
        1.0,
        0.0,
        0.0,
        -1.0,
        0.0,
        0.0,
        0.0,
        0.0,
        0.0,
        1.0
      ],
      "name": "f04bdc31ff4d40d6b9bc5b84702c16d1.fbx"
    },
    {
      "children": [
        3,
        5,
        8,
        11,
        14,
        17,
        20,
        23
      ],
      "name": "RootNode"
    },
    {
      "children": [
        4
      ],
      "matrix": [
        0.12495110091248011,
        -0.0507287994144096,
        0.6152815818329286,
        0.0,
        0.1355021348500032,
        0.6147033766399783,
        0.02316341621176697,
        0.0,
        -0.60231650706489,
        0.12776546414891365,
        0.13285217967179883,
        0.0,
        -4.783497333526611,
        184.04263305664063,
        16.09769058227539,
        1.0
      ],
      "name": "Line008"
    },
    {
      "mesh": 0,
      "name": "Line008_06 - Default_0"
    },
    {
      "children": [
        6
      ],
      "matrix": [
        0.7745270133018494,
        0.0,
        0.0,
        0.0,
        0.0,
        0.774527013301839,
        1.2618647546948095e-07,
        0.0,
        0.0,
        -1.062710491897624e-07,
        0.6522870063781652,
        0.0,
        25.328895568847656,
        65.11480712890625,
        4.599945068359375,
        1.0
      ],
      "name": "Line005"
    },
    {
      "children": [
        7
      ],
      "matrix": [
        1.0,
        0.0,
        -0.0,
        0.0,
        0.0,
        1.0,
        0.0,
        0.0,
        0.0,
        0.0,
        1.0,
        0.0,
        -0.4951122999191284,
        0.7300439476966858,
        -45.76493835449219,
        1.0
      ],
      "name": "Object_6"
    },
    {
      "mesh": 1,
      "name": "Line005_07 - Default_0"
    },
    {
      "children": [
        9
      ],
      "matrix": [
        1.0,
        0.0,
        0.0,
        0.0,
        0.0,
        0.9999999999999867,
        1.6292068494294582e-07,
        0.0,
        0.0,
        -1.6292068494294582e-07,
        0.9999999999999867,
        0.0,
        -5.6978302001953125,
        0.20257568359375,
        14.2054443359375,
        1.0
      ],
      "name": "Object008"
    },
    {
      "children": [
        10
      ],
      "matrix": [
        1.0,
        0.0,
        -0.0,
        0.0,
        0.0,
        1.0,
        0.0,
        0.0,
        0.0,
        0.0,
        1.0,
        0.0,
        0.0,
        -0.35999584197998047,
        -25.771865844726563,
        1.0
      ],
      "name": "Object_9"
    },
    {
      "mesh": 2,
      "name": "Object008_02 - Default_0"
    },
    {
      "children": [
        12
      ],
      "matrix": [
        1.0,
        0.0,
        0.0,
        0.0,
        0.0,
        0.9999999999999867,
        1.6292068494294582e-07,
        0.0,
        0.0,
        -1.6292068494294582e-07,
        0.9999999999999867,
        0.0,
        -5.6978302001953125,
        0.20257568359375,
        14.2054443359375,
        1.0
      ],
      "name": "Object007"
    },
    {
      "children": [
        13
      ],
      "matrix": [
        1.0,
        0.0,
        -0.0,
        0.0,
        0.0,
        1.0,
        0.0,
        0.0,
        0.0,
        0.0,
        1.0,
        0.0,
        0.0,
        -0.35999584197998047,
        -25.771865844726563,
        1.0
      ],
      "name": "Object_12"
    },
    {
      "mesh": 3,
      "name": "Object007_03 - Default_0"
    },
    {
      "children": [
        15
      ],
      "matrix": [
        1.0,
        0.0,
        0.0,
        0.0,
        0.0,
        0.9999999999999867,
        1.6292068494294582e-07,
        0.0,
        0.0,
        -1.6292068494294582e-07,
        0.9999999999999867,
        0.0,
        -5.6978302001953125,
        0.20257568359375,
        14.2054443359375,
        1.0
      ],
      "name": "Object006"
    },
    {
      "children": [
        16
      ],
      "matrix": [
        1.0,
        0.0,
        -0.0,
        0.0,
        0.0,
        1.0,
        0.0,
        0.0,
        0.0,
        0.0,
        1.0,
        0.0,
        0.0,
        -0.35999584197998047,
        -25.771865844726563,
        1.0
      ],
      "name": "Object_15"
    },
    {
      "mesh": 4,
      "name": "Object006_02 - Default_0"
    },
    {
      "children": [
        18
      ],
      "matrix": [
        1.0,
        0.0,
        0.0,
        0.0,
        0.0,
        0.9999999999999867,
        1.6292068494294582e-07,
        0.0,
        0.0,
        -1.6292068494294582e-07,
        0.9999999999999867,
        0.0,
        -5.6978302001953125,
        0.20257568359375,
        14.2054443359375,
        1.0
      ],
      "name": "Object005"
    },
    {
      "children": [
        19
      ],
      "matrix": [
        1.0,
        0.0,
        -0.0,
        0.0,
        0.0,
        1.0,
        0.0,
        0.0,
        0.0,
        0.0,
        1.0,
        0.0,
        0.0,
        -0.35999584197998047,
        -25.771865844726563,
        1.0
      ],
      "name": "Object_18"
    },
    {
      "mesh": 5,
      "name": "Object005_06 - Default_0"
    },
    {
      "children": [
        21
      ],
      "matrix": [
        1.0,
        0.0,
        0.0,
        0.0,
        0.0,
        0.9999999999999867,
        1.6292068494294582e-07,
        0.0,
        0.0,
        -1.6292068494294582e-07,
        0.9999999999999867,
        0.0,
        -5.6978302001953125,
        0.20257568359375,
        14.2054443359375,
        1.0
      ],
      "name": "Object002"
    },
    {
      "children": [
        22
      ],
      "matrix": [
        1.0,
        0.0,
        -0.0,
        0.0,
        0.0,
        1.0,
        0.0,
        0.0,
        0.0,
        0.0,
        1.0,
        0.0,
        0.0,
        -0.35999584197998047,
        -25.771865844726563,
        1.0
      ],
      "name": "Object_21"
    },
    {
      "mesh": 6,
      "name": "Object002_05 - Default_0"
    },
    {
      "children": [
        24
      ],
      "matrix": [
        1.0,
        0.0,
        0.0,
        0.0,
        0.0,
        0.9999999999999867,
        1.6292068494294582e-07,
        0.0,
        0.0,
        -1.6292068494294582e-07,
        0.9999999999999867,
        0.0,
        -5.6978302001953125,
        0.20257568359375,
        14.2054443359375,
        1.0
      ],
      "name": "Object001"
    },
    {
      "children": [
        25
      ],
      "matrix": [
        1.0,
        0.0,
        -0.0,
        0.0,
        0.0,
        1.0,
        0.0,
        0.0,
        0.0,
        0.0,
        1.0,
        0.0,
        0.0,
        -0.35999584197998047,
        -25.771865844726563,
        1.0
      ],
      "name": "Object_24"
    },
    {
      "mesh": 7,
      "name": "Object001_04 - Default_0"
    }
  ],
  "scene": 0,
  "scenes": [
    {
      "name": "Sketchfab_Scene",
      "nodes": [
        0
      ]
    }
  ]
}
